<?xml version="1.0" encoding="UTF-8" standalone="no"?>
<svg
   xmlns:dc="http://purl.org/dc/elements/1.1/"
   xmlns:cc="http://creativecommons.org/ns#"
   xmlns:rdf="http://www.w3.org/1999/02/22-rdf-syntax-ns#"
   xmlns:svg="http://www.w3.org/2000/svg"
   xmlns="http://www.w3.org/2000/svg"
   xmlns:sodipodi="http://sodipodi.sourceforge.net/DTD/sodipodi-0.dtd"
   xmlns:inkscape="http://www.inkscape.org/namespaces/inkscape"
   width="309px"
   height="309px"
   viewBox="0 0 309 309"
   version="1.1"
   id="svg879"
   sodipodi:docname="rustberrypi.svg"
   inkscape:version="0.92.3 (2405546, 2018-03-11)">
  <metadata
     id="metadata883">
    <rdf:RDF>
      <cc:Work
         rdf:about="">
        <dc:format>image/svg+xml</dc:format>
        <dc:type
           rdf:resource="http://purl.org/dc/dcmitype/StillImage" />
        <dc:title>rust_wasm4</dc:title>
      </cc:Work>
    </rdf:RDF>
  </metadata>
  <sodipodi:namedview
     pagecolor="#ffffff"
     bordercolor="#666666"
     borderopacity="1"
     objecttolerance="10"
     gridtolerance="10"
     guidetolerance="10"
     inkscape:pageopacity="0"
     inkscape:pageshadow="2"
     inkscape:window-width="1914"
     inkscape:window-height="1051"
     id="namedview881"
     showgrid="false"
     inkscape:zoom="1.5725045"
     inkscape:cx="100.5273"
     inkscape:cy="62.499626"
     inkscape:window-x="0"
     inkscape:window-y="0"
     inkscape:window-maximized="0"
     inkscape:current-layer="svg879" />
  <!-- Generator: Sketch 50.2 (55047) - http://www.bohemiancoding.com/sketch -->
  <title
     id="title869">rust_wasm4</title>
  <desc
     id="desc871">Created with Sketch.</desc>
  <defs
     id="defs873" />
  <g
     style="fill:#000000;fill-rule:nonzero;stroke:none;stroke-width:1"
     id="rust_wasm4">
    <path
       inkscape:connector-curvature="0"
       id="path4404"
       d="m 238.90927,25.213761 c -1.293,-0.846615 -2.93335,-0.965275 -4.32845,-0.309921 l -13.81343,6.450417 c -1.11276,-0.605048 -2.23612,-1.193908 -3.3608,-1.764607 l -2.58728,-15.014529 c -0.26372,-1.519422 -1.29701,-2.796893 -2.72608,-3.376517 -1.43722,-0.57792 -3.06313,-0.374554 -4.30963,0.543822 l -12.25627,8.995653 c -1.22535,-0.379261 -2.45178,-0.735592 -3.68092,-1.082167 L 186.38673,5.4673122 c -0.55272,-1.444223 -1.81678,-2.4998241 -3.33745,-2.7833763 -1.51501,-0.2868664 -3.07481,0.2326952 -4.11577,1.3702389 L 168.65747,15.273986 c -1.26907,-0.129402 -2.53943,-0.23522 -3.81229,-0.331843 L 156.72068,2.0752837 C 155.89585,0.76665499 154.45194,-0.01894198 152.90918,3.7223183e-4 151.36479,0.01148907 149.93191,0.82467035 149.13626,2.1475432 l -7.89922,13.0396278 c -1.25559,0.119158 -2.51451,0.259563 -3.76736,0.4123 L 126.96909,4.5424119 c -1.06867,-1.1192684 -2.63402,-1.6100302 -4.14489,-1.2947275 -1.51739,0.3144507 -2.75782,1.3904985 -3.28732,2.8453189 l -5.20332,14.3333997 c -1.20533,0.360123 -2.41127,0.730968 -3.60973,1.123746 L 98.267249,12.760458 c -1.261389,-0.878812 -2.89426,-1.065107 -4.316785,-0.459395 -1.421758,0.599166 -2.429307,1.899286 -2.666142,3.42941 l -2.304107,15.045666 c -1.122362,0.594221 -2.246863,1.197585 -3.361579,1.828565 L 71.721728,26.42507 c -1.41147,-0.62806 -3.045899,-0.482086 -4.323872,0.3875 -1.277128,0.873618 -2.008504,2.346485 -1.942551,3.888006 l 0.671554,15.184471 c -0.990519,0.807457 -1.973211,1.623817 -2.944674,2.461383 L 48.351366,45.002038 c -1.504799,-0.340082 -3.080221,0.12109 -4.164004,1.227133 -1.082172,1.103538 -1.517491,2.686223 -1.150863,4.18842 l 3.631035,14.790644 c -0.802727,0.972734 -1.596094,1.965738 -2.374813,2.961225 L 29.052386,67.780589 c -1.542388,-0.04031 -2.9952,0.719384 -3.84344,2.01487 -0.84823,1.295476 -0.965295,2.933371 -0.309932,4.328451 l 6.450434,13.813432 c -0.602697,1.114292 -1.19161,2.232574 -1.762289,3.357244 L 14.57617,93.884197 c -1.52191,0.262119 -2.79936,1.295413 -3.376501,2.726078 -0.580406,1.435621 -0.373897,3.065121 0.537927,4.310865 l 8.997971,12.25274 c -0.379253,1.22531 -0.73688,2.45602 -1.080915,3.68679 l -14.1862636,5.45611 c -1.4433739,0.55679 -2.5001851,1.81499 -2.784581,3.33162 -0.2876414,1.52153 0.2333428,3.08383 1.3749808,4.12396 l 11.2173868,10.26426 c -0.132595,1.27402 -0.24002,2.54135 -0.334165,3.81585 l -12.8645354,8.12095 c -1.30862276,0.8248 -2.09333548,2.26733 -2.07723143435,3.815 C 0.01472623,157.33855 0.82785629,158.77141 2.1474186,159.56138 l 13.0360554,7.89693 c 0.120931,1.26374 0.259565,2.51449 0.412299,3.76735 L 4.5363943,181.72981 c -1.1201234,1.0646 -1.6049951,2.62364 -1.2865154,4.14014 0.3078858,1.5166 1.3892612,2.75192 2.8440863,3.28143 l 14.3310718,5.20687 c 0.357749,1.21432 0.738756,2.41479 1.133162,3.61083 L 12.76264,210.4269 c -0.894439,1.25819 -1.065821,2.89531 -0.461724,4.32029 0.600776,1.4193 1.901252,2.42399 3.43052,2.65674 l 15.039811,2.3053 c 0.593437,1.12891 1.20003,2.24849 1.828533,3.36158 l -6.170207,13.89801 c -0.629645,1.41393 -0.485314,3.05083 0.387494,4.32388 0.867114,1.27633 2.344151,2.01204 3.885677,1.94608 l 15.186809,-0.6751 c 0.807473,0.99052 1.623834,1.9732 2.461414,2.94468 l -3.342101,14.82726 c -0.340107,1.5048 0.117892,3.08516 1.227135,4.16401 1.100311,1.08712 2.683479,1.51931 4.184842,1.14857 l 14.796522,-3.63225 c 0.96952,0.80766 1.959536,1.60021 2.9543,2.38548 l -0.388892,15.24031 c -0.03963,1.53584 0.721836,2.99683 2.014861,3.84346 1.293015,0.84662 2.936041,0.96355 4.332018,0.31224 l 13.809884,-6.45275 c 1.1175,0.59781 2.239825,1.18822 3.367736,1.75398 l 2.583766,15.01221 c 0.260497,1.52436 1.292125,2.80428 2.726061,3.37649 1.433985,0.58286 3.067598,0.37555 4.310861,-0.53794 l 12.25041,-8.99443 c 1.22533,0.37925 2.45602,0.73683 3.68678,1.08089 l 5.45382,14.18985 c 0.55594,1.43927 1.81734,2.49659 3.33393,2.78102 1.51583,0.29102 3.07904,-0.23142 4.12164,-1.37143 l 10.26782,-11.21506 c 1.26908,0.12938 2.54266,0.23028 3.81231,0.33182 l 8.12681,12.86333 c 0.82483,1.30862 2.26326,2.09726 3.80683,2.082 1.54768,-0.0161 2.97552,-0.82698 3.77526,-2.15071 l 7.9051,-13.04086 c 1.25557,-0.11925 2.50557,-0.24825 3.75916,-0.40751 l 10.50292,11.05351 c 1.06704,1.12174 2.62811,1.61672 4.14137,1.29237 1.51737,-0.31446 2.75245,-1.38229 3.28032,-2.83467 l 5.20565,-14.33696 c 1.2094,-0.36099 2.41511,-0.73151 3.61438,-1.13083 l 12.45426,8.79322 c 1.2517,0.89359 2.89262,1.06761 4.31679,0.4594 1.42495,-0.60409 2.4323,-1.90085 2.66257,-3.43174 l 2.30298,-15.03624 c 1.12808,-0.59754 2.24811,-1.20185 3.36036,-1.83441 l 13.89689,6.17965 c 1.41232,0.63208 3.04905,0.48264 4.32618,-0.39107 1.27394,-0.86873 2.01306,-2.33492 1.9438,-3.8821 l -0.6751,-15.18683 c 0.98805,-0.80909 1.97304,-1.62899 2.94699,-2.46495 l 14.82848,3.34797 c 1.50889,0.33924 3.0875,-0.12145 4.16637,-1.23069 1.08708,-1.10031 1.51569,-2.68585 1.14493,-4.1872 l -3.62517,-14.79188 c 0.80019,-0.97438 1.59484,-1.96147 2.37606,-2.95537 l 15.23677,0.38656 c 1.5408,0.0429 2.99681,-0.72184 3.84343,-2.01487 0.84662,-1.29302 0.96724,-2.92856 0.31347,-4.32615 l -6.44686,-13.81109 c 0.60014,-1.11597 1.18791,-2.24007 1.76106,-3.3631 l 15.00512,-2.58837 c 1.52596,-0.26299 2.8066,-1.29575 3.37882,-2.72964 0.58286,-1.43403 0.37561,-3.06246 -0.54026,-4.30733 l -8.9921,-12.25396 c 0.37684,-1.22693 0.73199,-2.45413 1.07853,-3.68324 l 14.18627,-5.45612 c 1.44424,-0.55273 2.49683,-1.81525 2.7869,-3.33515 0.28688,-1.51501 -0.23533,-3.07304 -1.37374,-4.11811 l -11.22092,-10.26659 c 0.13508,-1.27243 0.23953,-2.54366 0.33538,-3.81 l 12.86564,-8.13036 c 1.31269,-0.82568 2.10012,-2.26996 2.08077,-3.8127 -0.0136,-1.54602 -0.81688,-2.97245 -2.14716,-3.77295 l -13.04085,-7.90509 c -0.11927,-1.25555 -0.25496,-2.5084 -0.41338,-3.75793 l 11.05706,-10.50061 c 1.12174,-1.06702 1.6156,-2.63189 1.29698,-4.14847 -0.31275,-1.5092 -1.38927,-2.7519 -2.84409,-3.28141 l -14.32987,-5.20101 c -0.35848,-1.2078 -0.73324,-2.4178 -1.1285,-3.61793 l 8.79324,-12.454234 c 0.89448,-1.258187 1.06671,-2.896737 0.45939,-4.316773 -0.60657,-1.426602 -1.89825,-2.428635 -3.42589,-2.663834 l -15.04209,-2.301747 c -0.59915,-1.125616 -1.20253,-2.250131 -1.82856,-3.361587 l 6.17841,-13.902782 c 0.62643,-1.408992 0.47785,-3.047137 -0.39337,-4.322654 -0.86711,-1.276359 -2.33899,-2.0122 -3.88214,-1.943774 l -15.19157,0.666917 c -0.80498,-0.988911 -1.62261,-1.967328 -2.46019,-2.938805 L 263.699,48.353796 c 0.34337,-1.509698 -0.1188,-3.08378 -1.22482,-4.167547 -1.10516,-1.079695 -2.6867,-1.514415 -4.18485,-1.148557 l -14.79653,3.632246 c -0.97272,-0.80275 -1.96057,-1.596223 -2.95768,-2.3725 l 0.38885,-15.240326 c 0.0404,-1.542384 -0.72183,-2.996819 -2.01485,-3.843455 z m -15.18904,22.686884 c 1.93217,1.330311 3.35605,3.39901 3.8172,5.890336 0.91257,4.986734 -2.38081,9.771567 -7.36587,10.69228 -4.97927,0.928059 -9.75779,-2.363201 -10.67692,-7.350683 -0.9133,-4.980241 2.38166,-9.767505 7.36591,-10.692312 2.48961,-0.46404 4.92749,0.130067 6.85968,1.460379 z m 9.34493,24.178442 c 24.31381,23.284544 36.59359,54.694363 35.07865,87.973913 l -23.00449,14.89847 c -3.87727,2.51333 -4.99072,7.69237 -2.49051,11.56812 l 12.92822,19.43354 c -17.13777,32.61383 -46.75214,52.27487 -76.32406,58.22172 l -14.29166,-14.50234 c -3.24793,-3.28302 -8.5412,-3.31144 -11.82906,-0.0561 l -15.73924,15.76276 C 121.98366,262.99289 106.96228,257.03112 93.069698,247.93472 78.858745,238.62991 67.530344,226.52124 59.119643,212.98316 l 7.82107,-20.34411 c 1.665862,-4.31032 -0.471905,-9.14793 -4.778911,-10.80809 L 44.450048,175.01371 C 39.01582,138.49905 46.646513,109.61407 68.147374,82.227494 l 20.832516,3.147791 c 4.554656,0.743508 8.855318,-2.348625 9.603695,-6.910685 l 0.205954,-1.259019 0.09527,0.148571 C 100.92806,64.111865 101.9514,57.765573 102.53924,54.231218 128.43061,40.923134 160.91701,34.930014 198.10301,49.3892 l 3.73744,19.974884 c 0.83935,4.544003 5.19569,7.544449 9.73882,6.701013 z M 90.731027,66.36955 c -0.844216,5.387221 -5.663526,8.494741 -10.658023,7.674765 -4.997803,-0.815113 -8.380653,-5.530939 -7.558234,-10.534546 0.82243,-5.003586 6.275509,-8.35309 10.535501,-7.582953 4.259983,0.770148 8.158367,4.234716 7.680756,10.442734 z m 178.728233,111.2055 c 0.98411,0.67032 1.85454,1.54274 2.54094,2.60648 2.74713,4.25248 1.52164,9.93895 -2.7341,12.69105 -4.25481,2.75615 -9.9276,1.53765 -12.67558,-2.71892 -2.74225,-4.24926 -1.51888,-9.93009 2.73761,-12.68873 3.18995,-2.06526 7.17711,-1.89809 10.13113,0.11012 z M 50.43411,188.04533 c 3.58733,2.30401 5.188402,6.88412 3.589219,11.02259 -1.828497,4.72562 -7.141606,7.08633 -11.861422,5.26514 -4.72553,-1.81786 -7.073825,-7.12434 -5.248626,-11.85567 1.83496,-4.73548 7.136996,-7.09241 11.862517,-5.27456 0.590142,0.22808 1.145972,0.51313 1.658256,0.84258 z m 113.51714,74.85904 c 0.50533,0.33956 0.9876,0.73047 1.43183,1.18068 3.5606,3.59701 3.52323,9.41564 -0.0795,12.97952 -3.60271,3.56394 -9.41771,3.53357 -12.97585,-0.0618 -3.55577,-3.60439 -3.51281,-9.40834 0.0948,-12.97968 3.15161,-3.12199 7.98752,-3.4894 11.52882,-1.11877 z" />
  </g>
  <g
     transform="matrix(1.7880493,0,0,1.7880493,111.25404,-162.82245)"
     id="layer1"
     inkscape:label="Layer 1">
    <g
       transform="matrix(0.12938496,0,0,0.12938496,-13.018439,134.06988)"
       id="g3787">
      <path
         style="fill:#000000"
         inkscape:connector-curvature="0"
         d="m 158.38,1.6562 c -3.6193,0.11232 -7.5172,1.4493 -11.938,4.9375 -10.83,-4.1763 -21.33,-5.6271 -30.72,2.8751 C 101.222,7.588 96.51,11.469 92.94,16 89.757,15.934 69.121,12.728 59.658,26.844 35.877,24.03 28.361,40.832 36.877,56.5 c -4.8569,7.519 -9.8895,14.947 1.4688,29.281 -4.018,7.9835 -1.5274,16.644 7.9375,27.125 -2.4979,11.223 2.4121,19.141 11.219,25.312 -1.6471,15.358 14.084,24.287 18.781,27.469 1.8037,8.9487 5.5629,17.393 23.531,22.062 2.9632,13.336 13.762,15.639 24.219,18.438 -34.562,20.09 -64.201,46.523 -64,111.38 l -5.0625,9.0312 c -39.63,24.1 -75.285,101.56 -19.53,164.52 3.6419,19.708 9.7496,33.864 15.188,49.531 8.1338,63.131 61.218,92.692 75.219,96.188 20.517,15.628 42.368,30.457 71.938,40.844 27.875,28.749 58.074,39.706 88.438,39.688 0.44515,-2.8e-4 0.89853,0.005 1.3438,0 30.364,0.0189 60.562,-10.938 88.438,-39.688 29.569,-10.387 51.421,-25.216 71.938,-40.844 14.001,-3.4959 67.085,-33.057 75.219,-96.188 5.4379,-15.667 11.546,-29.823 15.188,-49.531 55.754,-62.965 20.1,-140.43 -19.531,-164.53 l -5.07,-9.03 c 0.20067,-64.852 -29.438,-91.285 -64,-111.38 10.457,-2.7984 21.256,-5.1014 24.219,-18.438 17.968,-4.6698 21.728,-13.114 23.531,-22.062 4.6978,-3.1813 20.428,-12.111 18.781,-27.469 8.8067,-6.1716 13.717,-14.09 11.219,-25.312 9.4649,-10.481 11.956,-19.141 7.9375,-27.125 11.36,-14.328 6.32,-21.756 1.47,-29.275 8.51,-15.668 1,-32.47 -22.79,-29.656 -9.46,-14.116 -30.09,-10.91 -33.28,-10.844 -3.57,-4.531 -8.28,-8.412 -22.78,-6.5312 -9.39,-8.5022 -19.89,-7.0514 -30.72,-2.875 -12.86,-10.148 -21.37,-2.0133 -31.09,1.0624 -15.57,-5.0877 -19.13,1.881 -26.78,4.7188 -16.98,-3.5881 -22.14,4.224 -30.28,12.469 l -9.4688,-0.1875 c -25.611,15.093 -38.334,45.826 -42.844,61.625 -4.5121,-15.802 -17.206,-46.535 -42.812,-61.625 l -9.4688,0.1875 c -8.15,-8.245 -13.31,-16.057 -30.29,-12.469 -7.65,-2.8378 -11.2,-9.8065 -26.78,-4.7188 -6.3797,-2.0185 -12.247,-6.2144 -19.156,-6 z"
         id="path3737" />
      <path
         style="fill:#75a928"
         inkscape:connector-curvature="0"
         d="m 107.39,68.056 c 67.948,35.031 107.45,63.369 129.09,87.504 -11.082,44.418 -68.896,46.445 -90.036,45.199 4.3284,-2.0147 7.9399,-4.4278 9.2205,-8.1357 -5.3045,-3.7698 -24.113,-0.39719 -37.244,-7.7742 5.0441,-1.045 7.4035,-2.063 9.7629,-5.7854 -12.406,-3.9567 -25.769,-7.3664 -33.628,-13.921 4.2413,0.0524 8.2012,0.9488 13.74,-2.8927 -11.112,-5.9882 -22.969,-10.734 -32.181,-19.887 5.7452,-0.14063 11.939,-0.0568 13.74,-2.1695 -10.17,-6.3007 -18.751,-13.308 -25.854,-20.972 8.04,0.97052 11.435,0.13478 13.379,-1.2656 -7.6878,-7.8742 -17.418,-14.523 -22.057,-24.226 5.9696,2.0575 11.431,2.8451 15.368,-0.1808 -2.6124,-5.8935 -13.805,-9.3696 -20.249,-23.142 6.2844,0.60938 12.95,1.3711 14.283,0 -2.917,-11.884 -7.922,-18.565 -12.831,-25.487 13.45,-0.2 33.828,0.052 32.905,-1.085 l -8.3165,-8.4973 c 13.138,-3.5372 26.581,0.56816 36.34,3.6159 4.3819,-3.4577 -0.0776,-7.83 -5.4238,-12.294 11.165,1.4906 21.254,4.0574 30.373,7.5934 4.8724,-4.3993 -3.1639,-8.7987 -7.051,-13.198 17.249,3.2726 24.557,7.8707 31.82,12.475 5.2694,-5.0508 0.30166,-9.3433 -3.2543,-13.74 13.006,4.817 19.705,11.036 26.758,17.175 2.3912,-3.2271 6.0749,-5.5924 1.6272,-13.379 9.2342,5.3227 16.189,11.595 21.334,18.622 5.7134,-3.6379 3.4039,-8.613 3.4351,-13.198 9.5966,7.8065 15.687,16.114 23.142,24.226 1.5017,-1.0934 2.8166,-4.8017 3.9775,-10.667 22.895,22.212 55.246,78.158 8.3165,100.34 -39.94,-32.94 -87.64,-56.883 -140.5,-74.844 z"
         id="path3739" />
      <path
         style="fill:#75a928"
         inkscape:connector-curvature="0"
         d="m 467.92,68.056 c -67.94,35.034 -107.44,63.364 -129.08,87.504 11.082,44.418 68.896,46.445 90.036,45.199 -4.3284,-2.0147 -7.9399,-4.4278 -9.2205,-8.1357 5.3045,-3.7698 24.113,-0.39719 37.244,-7.7742 -5.0441,-1.045 -7.4035,-2.063 -9.7629,-5.7854 12.406,-3.9567 25.769,-7.3664 33.628,-13.921 -4.2413,0.0524 -8.2012,0.9488 -13.74,-2.8927 11.112,-5.9882 22.969,-10.734 32.181,-19.887 -5.7452,-0.14063 -11.939,-0.0568 -13.74,-2.1695 10.17,-6.3007 18.751,-13.308 25.854,-20.972 -8.04,0.97052 -11.435,0.13478 -13.379,-1.2656 7.6878,-7.8742 17.418,-14.523 22.057,-24.226 -5.9696,2.0575 -11.431,2.8451 -15.368,-0.1808 2.6124,-5.8935 13.805,-9.3696 20.249,-23.142 -6.2844,0.60938 -12.95,1.3711 -14.283,0 2.9223,-11.889 7.9275,-18.57 12.836,-25.492 -13.45,-0.19973 -33.828,0.05235 -32.905,-1.0848 l 8.3165,-8.4973 c -13.138,-3.5372 -26.581,0.56816 -36.34,3.6159 -4.3819,-3.4577 0.0776,-7.83 5.4238,-12.294 -11.165,1.4906 -21.254,4.0574 -30.373,7.5934 -4.8724,-4.3993 3.1639,-8.7987 7.051,-13.198 -17.249,3.2726 -24.557,7.8707 -31.82,12.475 -5.2694,-5.0508 -0.30166,-9.3433 3.2543,-13.74 -13.006,4.817 -19.705,11.036 -26.758,17.175 -2.3912,-3.2271 -6.0749,-5.5924 -1.6272,-13.379 -9.2342,5.3227 -16.189,11.595 -21.334,18.622 -5.7134,-3.6379 -3.4039,-8.613 -3.4351,-13.198 -9.5966,7.8065 -15.687,16.114 -23.142,24.226 -1.5017,-1.0934 -2.8166,-4.8017 -3.9775,-10.667 -22.895,22.212 -55.246,78.158 -8.3165,100.34 39.919,-32.947 87.616,-56.888 140.48,-74.849 z"
         id="path3741" />
      <path
         style="fill:#bc1142"
         inkscape:connector-curvature="0"
         d="m 365.2,521.85 a 71.956,66.532 0 1 1 -143.91,0 71.956,66.532 0 1 1 143.91,0 z"
         transform="matrix(1.131107,0,0,1.1280497,-43.139135,-68.310983)"
         id="path3743" />
      <path
         style="fill:#bc1142"
         inkscape:connector-curvature="0"
         d="m 262.84,276.65 a 61.875,28.125 0 1 1 -123.75,0 61.875,28.125 0 1 1 123.75,0 z"
         transform="matrix(0.76741684,-1.1613112,2.171115,1.4224368,-560.88858,217.68859)"
         id="path3745" />
      <path
         style="fill:#bc1142"
         inkscape:connector-curvature="0"
         d="m 262.84,276.65 a 61.875,28.125 0 1 1 -123.75,0 61.875,28.125 0 1 1 123.75,0 z"
         transform="matrix(-0.76741684,-1.1613112,-2.171115,1.4224368,1134.8288,213.68859)"
         id="path3747" />
      <path
         style="fill:#bc1142"
         inkscape:connector-curvature="0"
         d="M 72.91,342.09 C 109.32,332.33 85.202,492.72 55.577,479.56 22.99,453.35 12.494,376.59 72.91,342.09 Z"
         id="path3749" />
      <path
         style="fill:#bc1142"
         inkscape:connector-curvature="0"
         d="M 493.68,340.09 C 457.266,330.3331 481.388,490.73 511.013,477.57 543.6,451.357 554.096,374.59 493.68,340.09 Z"
         id="path3751" />
      <path
         style="fill:#bc1142"
         inkscape:connector-curvature="0"
         d="m 369.97,220.65 c 62.835,-10.61 115.12,26.722 113.01,94.858 -2.0669,26.121 -136.16,-90.969 -113.01,-94.858 z"
         id="path3753" />
      <path
         style="fill:#bc1142"
         inkscape:connector-curvature="0"
         d="M 196.36,218.65 C 133.52,208.04 81.24,245.38 83.35,313.51 85.417,339.63 219.51,222.54 196.36,218.65 Z"
         id="path3755" />
      <path
         style="fill:#bc1142"
         inkscape:connector-curvature="0"
         d="m 286.62,202.76 c -37.503,-0.97548 -73.495,27.834 -73.582,44.544 -0.10462,20.304 29.651,41.093 73.837,41.62 45.123,0.32321 73.916,-16.64 74.061,-37.594 0.16484,-23.74 -41.039,-48.937 -74.317,-48.571 z"
         id="path3757" />
      <path
         style="fill:#bc1142"
         inkscape:connector-curvature="0"
         d="m 288.91,619.12 c 32.697,-1.4271 76.571,10.532 76.657,26.396 0.5427,15.405 -39.79,50.211 -78.826,49.538 -40.427,1.7439 -80.069,-33.116 -79.55,-45.199 -0.60506,-17.716 49.226,-31.548 81.719,-30.735 z"
         id="path3759" />
      <path
         style="fill:#bc1142"
         inkscape:connector-curvature="0"
         d="m 168.14,525.1 c 23.279,28.046 33.891,77.319 14.464,91.844 -18.379,11.088 -63.012,6.5216 -94.736,-39.052 -21.395,-38.242 -18.638,-77.157 -3.6159,-88.589 22.464,-13.684 57.173,4.799 83.889,35.797 z"
         id="path3761" />
      <path
         style="fill:#bc1142"
         inkscape:connector-curvature="0"
         d="m 405.02,516.21 c -25.187,29.502 -39.212,83.31 -20.838,100.64 17.568,13.464 64.729,11.582 99.566,-36.756 25.296,-32.465 16.82,-86.682 2.3708,-101.08 -21.464,-16.602 -52.277,4.6449 -81.099,37.188 z"
         id="path3763" />
    </g>
  </g>
</svg>
